<?xml version="1.0" encoding="UTF-8"?>
<svg id="Layer_1" data-name="Layer 1" xmlns="http://www.w3.org/2000/svg" xmlns:xlink="http://www.w3.org/1999/xlink" viewBox="0 0 879.76 741.58">
  <defs>
    <style>
      .cls-1 {
        fill: url(#linear-gradient);
      }

      .cls-2 {
        fill: url(#linear-gradient-3);
      }

      .cls-3 {
        fill: url(#linear-gradient-4);
      }

      .cls-4 {
        fill: url(#linear-gradient-2);
      }

      .cls-5 {
        fill: url(#linear-gradient-5);
      }
    </style>
    <linearGradient id="linear-gradient" x1="-20.49" y1="-137.92" x2="884.01" y2="572.36" gradientTransform="translate(-13.34 16.25) rotate(-2.11)" gradientUnits="userSpaceOnUse">
      <stop offset="0" stop-color="#fff"/>
      <stop offset=".53" stop-color="#f15a24"/>
    </linearGradient>
    <linearGradient id="linear-gradient-2" x1="428.21" y1="625.9" x2="-80.79" y2="472.84" gradientTransform="translate(-13.34 16.25) rotate(-2.11)" gradientUnits="userSpaceOnUse">
      <stop offset="0" stop-color="#fff"/>
      <stop offset=".47" stop-color="#f15a24"/>
    </linearGradient>
    <linearGradient id="linear-gradient-3" x1="212.38" y1="378.53" x2="732.99" y2="378.53" gradientTransform="translate(-13.34 16.25) rotate(-2.11)" gradientUnits="userSpaceOnUse">
      <stop offset="0" stop-color="#fff"/>
      <stop offset=".89" stop-color="#f15a24"/>
    </linearGradient>
    <linearGradient id="linear-gradient-4" x1="340.42" y1="545.82" x2="738.69" y2="545.82" gradientTransform="translate(-29.63 34.66) rotate(-4)" gradientUnits="userSpaceOnUse">
      <stop offset="0" stop-color="#fff"/>
      <stop offset=".28" stop-color="#3fa9f5"/>
    </linearGradient>
    <linearGradient id="linear-gradient-5" x1="349.47" y1="664.64" x2="870.09" y2="664.64" gradientTransform="translate(-22.86 25.68) rotate(-2.96)" xlink:href="#linear-gradient-3"/>
  </defs>
  <g>
    <g>
      <path class="cls-1" d="M701.44,8.12c-15.71-12.95-24.02-10.02-36.61,5.96-8.52,10.82-20.89,21.33-33.64,25.44-16.04,5.16-34.39,5.86-51.46,4.62-70.08-5.09-140.04-11.93-210.09-17.6-65.39-5.29-130.59-7.4-195.08,9.43C81.88,60.16,14.91,129.81,2.02,216.91c-12.02,81.28,30.47,147.01,105.07,162.5,68.12,14.15,142.28-29.94,153.93-92.55,1.72-9.27-2.71-19.69-4.3-29.57-7.82,2.9-16.3,4.69-23.36,8.88-53.51,31.78-115.98,16.28-132.19-36.38-6.59-21.42-6.71-47.56-1.23-69.42,13-51.94,63.53-87.46,121.69-92.52,70.91-6.17,135.69,17.31,203.49,39.91-49.64,66.42-73.26,140.6-91.96,216.35,29.76-16.7,61.32-25.79,94.08-27,1.33-.05,2.65-.08,3.98-.11,1.45-.03,2.9-.04,4.35-.03,15.17-57.56,29.76-112.88,44.48-168.71,14.5,4.32,22.96,7.73,31.75,9.3,38.84,6.94,77.6,17.07,116.72,18.92,39.51,1.86,70.89-18.08,87.88-55.84,15.11-33.57,8.48-73.22-14.95-92.53Z"/>
      <path class="cls-4" d="M314.71,427.42c-2.43,.55-4.86,1.16-7.3,1.76-13.99,61.5-25.99,123.86-60.31,178.23-10.98,17.4-28.5,32.67-46.37,43.24-25.93,15.34-59.72,7.97-74.39-11.16-15.91-20.74-14.21-51.14,4.22-75.48,14.32-18.91,12.88-30.27-5.71-45.06-32.72-26.03-84.92-12.55-106.98,27.64-21.68,39.49-20.96,112,11.39,148.28,25.05,28.1,61.84,48.76,121.8,46.55,91.61-3.38,161.57-82.48,200.62-163.55,23.05-47.84,37.53-99.91,54.36-150.58,.98-2.94,1.94-5.59,3.01-7.96-10.21-.53-20.41-.63-30.52-.26-21.22,.78-42.69,3.59-63.82,8.36Z"/>
    </g>
    <path class="cls-2" d="M573.27,356.74c-5.68-2.41-11.36-5-17.04-7.73-15.93-7.66-32.47-14.12-49-20.4-5.76-2.19-11.5-4.14-17.21-5.88-22.83-6.96-45.29-10.33-67.27-9.95-36.99,.65-72.63,11.96-106.46,34.77-.74,.5-1.47,.97-2.21,1.48-2.08,1.44-4.14,2.91-6.19,4.4-11.2,8.13-21.91,16.96-32.43,26.06-11.85,10.26-23.45,20.86-35.19,31.19-9.45,8.31-17.07,18.68-25.53,28.11,16.77-2.53,30.47-8.78,44.64-13.73,14.38-5.02,28.78-9.14,43.2-12.39,41.62-9.38,83.41-11.39,125.34-6.07,25.23,3.2,50.52,9.04,75.85,17.53,44.41,14.88,89.21,21.02,134.56,7.14,41.14-12.59,72.41-37.86,94.32-75.53-54.48,30.75-107.06,23.24-159.39,1Z"/>
  </g>
  <path class="cls-3" d="M604.16,450.76c-6.03,1.33-12.15,2.53-18.36,3.6-17.42,3.01-34.64,7.35-51.74,11.83-5.96,1.56-11.76,3.31-17.43,5.21-22.63,7.59-42.87,17.88-60.54,30.95-29.74,22-52.19,51.9-66.49,90.12-.31,.83-.64,1.65-.94,2.49-.86,2.38-1.68,4.77-2.48,7.18-4.39,13.12-8,26.53-11.27,40.04-3.69,15.23-6.98,30.6-10.54,45.83-2.87,12.25-3.06,25.12-4.47,37.71,8.21-14.31,12.94-20.64,26.35-37.99,9.55-12.36,20.1-24.76,31.65-37.19,27.28-29.37,59.65-54.77,96.88-74.79,22.4-12.04,46.38-21.97,71.94-29.76,44.8-13.67,84.84-34.68,113.7-72.31,26.19-34.14,36.98-72.86,32.95-116.26-26.51,56.66-73.68,81.07-129.2,93.35Z"/>
  <path class="cls-5" d="M720.4,636.1c-5.72-2.33-11.43-4.83-17.15-7.47-16.04-7.43-32.67-13.64-49.29-19.68-5.79-2.1-11.56-3.97-17.3-5.62-22.93-6.62-45.43-9.66-67.41-8.95-36.97,1.2-72.44,13.03-105.93,36.35-.73,.51-1.46,.99-2.19,1.51-2.06,1.47-4.1,2.97-6.12,4.49-11.07,8.3-21.66,17.28-32.04,26.54-11.7,10.43-23.14,21.21-34.73,31.71-9.32,8.45-16.8,18.93-25.11,28.48,16.91-5.9,30.33-9.23,44.43-14.39,14.3-5.24,28.64-9.57,43.01-13.03,41.47-10,83.23-12.62,125.24-7.93,25.28,2.83,50.65,8.29,76.1,16.41,44.62,14.22,89.51,19.7,134.65,5.15,40.95-13.2,71.84-38.92,93.19-76.92-54.02,31.55-106.7,24.82-159.36,3.35Z"/>
</svg>